<svg width="20" height="24" viewBox="0 0 20 24" fill="none" xmlns="http://www.w3.org/2000/svg">
<path d="M11.4608 7.12916H4.92323C4.34782 7.12916 3.87036 6.6517 3.87036 6.0763V4.497C3.87036 3.92159 4.34782 3.44413 4.92323 3.44413H6.34337C6.2944 3.27273 6.26992 3.10134 6.26992 2.9177C6.26992 1.86483 7.1269 0.995605 8.19201 0.995605C9.25712 0.995605 10.1141 1.85259 10.1141 2.9177C10.1141 3.08909 10.0896 3.27273 10.0406 3.44413H11.4608C12.0362 3.44413 12.5137 3.92159 12.5137 4.497V6.0763C12.5137 6.6517 12.0362 7.12916 11.4608 7.12916ZM4.92323 4.05626C4.67837 4.05626 4.48249 4.25214 4.48249 4.497V6.0763C4.48249 6.32115 4.67837 6.51703 4.92323 6.51703H11.4608C11.7056 6.51703 11.9015 6.32115 11.9015 6.0763V4.497C11.9015 4.25214 11.7056 4.05626 11.4608 4.05626H9.57543C9.46524 4.05626 9.3673 3.99505 9.30609 3.89711C9.25712 3.79917 9.25712 3.68898 9.30609 3.59104C9.42851 3.38292 9.50197 3.15031 9.50197 2.9177C9.50197 2.19538 8.91432 1.60774 8.19201 1.60774C7.46969 1.60774 6.88205 2.19538 6.88205 2.9177C6.88205 3.15031 6.94326 3.37068 7.07793 3.59104C7.13914 3.68898 7.13914 3.79917 7.07793 3.89711C7.02896 3.99505 6.91878 4.05626 6.80859 4.05626H4.92323Z" fill="white"/>
<path d="M14.4725 23.0079H1.59325C1.0913 23.0079 0.675049 22.5916 0.675049 22.0897V5.78249C0.675049 5.28054 1.0913 4.86429 1.59325 4.86429H3.42964C3.60104 4.86429 3.73571 4.99896 3.73571 5.17035C3.73571 5.34175 3.60104 5.47642 3.42964 5.47642H1.59325C1.42185 5.47642 1.28718 5.61109 1.28718 5.78249V22.0897C1.28718 22.2611 1.42185 22.3957 1.59325 22.3957H14.4725C14.6439 22.3957 14.7786 22.2611 14.7786 22.0897V14.3278C14.7786 14.1564 14.9132 14.0218 15.0846 14.0218C15.256 14.0218 15.3907 14.1564 15.3907 14.3278V22.0897C15.3907 22.5916 14.9744 23.0079 14.4725 23.0079Z" fill="white"/>
<path d="M15.0846 9.14921C14.9132 9.14921 14.7785 9.01454 14.7785 8.84314V5.78249C14.7785 5.61109 14.6439 5.47642 14.4725 5.47642H13.0401C12.8687 5.47642 12.734 5.34175 12.734 5.17035C12.734 4.99896 12.8687 4.86429 13.0401 4.86429H14.4725C14.9744 4.86429 15.3907 5.28054 15.3907 5.78249V8.84314C15.3907 9.01454 15.256 9.14921 15.0846 9.14921Z" fill="white"/>
<path d="M5.26609 20.3634C5.19264 20.3634 5.10694 20.3389 5.04573 20.2777L3.30727 18.5393C3.18485 18.4169 3.18485 18.221 3.30727 18.1108C3.4297 17.9884 3.62558 17.9884 3.73577 18.1108L5.25385 19.6289L7.98396 16.8988C8.10638 16.7763 8.30227 16.7763 8.41245 16.8988C8.53488 17.0212 8.53488 17.2171 8.41245 17.3273L5.46198 20.2777C5.46198 20.2777 5.32731 20.3634 5.24161 20.3634H5.26609Z" fill="white"/>
<path d="M9.59997 17.3762C9.51427 17.3762 9.44081 17.3395 9.3796 17.2905C9.30614 17.2171 9.28166 17.1191 9.2939 17.0212L9.63669 15.2705C9.63669 15.2705 9.67342 15.1603 9.72239 15.1113L15.8927 8.94105C15.8927 8.94105 16.0273 8.85535 16.113 8.85535C16.1987 8.85535 16.2722 8.89207 16.3334 8.94105L17.7413 10.3489C17.8637 10.4714 17.8637 10.6673 17.7413 10.7774L11.571 16.9477C11.571 16.9477 11.4731 17.0212 11.4119 17.0334L9.66118 17.3762C9.66118 17.3762 9.62445 17.3762 9.59997 17.3762ZM10.2243 15.4664L9.99173 16.6784L11.2037 16.4458L17.0925 10.5571L16.113 9.57766L10.2243 15.4664Z" fill="white"/>
<path d="M18.2187 10.1653C18.1453 10.1653 18.0596 10.1408 17.9984 10.0796L16.5905 8.67172C16.4681 8.54929 16.4681 8.35341 16.5905 8.24323L17.423 7.41073C17.5454 7.2883 17.7413 7.2883 17.8515 7.41073L19.2594 8.81863C19.3818 8.94106 19.3818 9.13694 19.2594 9.24712L18.4269 10.0796C18.4269 10.0796 18.2922 10.1653 18.2065 10.1653H18.2187ZM17.2393 8.45135L18.2187 9.43076L18.6228 9.02676L17.6433 8.04734L17.2393 8.45135Z" fill="white"/>
<path d="M14.2645 12.7118C14.191 12.7118 14.1053 12.6873 14.0441 12.6261C13.9217 12.5036 13.9217 12.3078 14.0441 12.1976L16.5906 9.65112C16.713 9.52869 16.9089 9.52869 17.019 9.65112C17.1415 9.77354 17.1415 9.96942 17.019 10.0796L14.4726 12.6261C14.4726 12.6261 14.3379 12.7118 14.2522 12.7118H14.2645Z" fill="white"/>
<path d="M11.3507 17.0334C11.2772 17.0334 11.1916 17.009 11.1303 16.9477L9.72243 15.5398C9.60001 15.4174 9.60001 15.2215 9.72243 15.1114C9.84486 14.9889 10.0407 14.9889 10.1509 15.1114L11.5588 16.5193C11.6813 16.6417 11.6813 16.8376 11.5588 16.9477C11.4976 17.009 11.4242 17.0334 11.3385 17.0334H11.3507Z" fill="white"/>
</svg>
