<svg width="22" height="23" viewBox="0 0 22 23" fill="none" xmlns="http://www.w3.org/2000/svg">
<path d="M11.013 22.9949C5.06504 22.9949 0.216309 18.1461 0.216309 12.1982C0.216309 6.25018 5.06504 1.40144 11.013 1.40144C11.8563 1.40144 12.6995 1.49179 13.5127 1.68755C13.7235 1.73272 13.844 1.94354 13.7988 2.13929C13.7536 2.35011 13.5428 2.47057 13.347 2.4254C12.5941 2.2447 11.8111 2.15435 11.0281 2.15435C5.47161 2.15435 0.969218 6.65675 0.969218 12.1982C0.969218 17.7396 5.47161 22.242 11.013 22.242C16.5544 22.242 21.0568 17.7396 21.0568 12.1982C21.0568 11.0839 20.8761 9.99966 20.5147 8.94559C20.4394 8.74984 20.5599 8.53902 20.7557 8.46373C20.9514 8.4035 21.1622 8.5089 21.2375 8.70466C21.614 9.81896 21.8097 10.9935 21.8097 12.1982C21.8097 18.1461 16.961 22.9949 11.013 22.9949Z" fill="white"/>
<path d="M11.0131 22.9949C11.0131 22.9949 10.8926 22.9949 10.8324 22.9497C7.2937 21.0674 4.71875 16.5349 4.71875 12.1982C4.71875 7.8614 7.2937 3.32889 10.8324 1.44662C10.9378 1.38639 11.0733 1.38639 11.1938 1.44662C11.8563 1.80801 12.5038 2.25976 13.1062 2.7868C13.2567 2.92232 13.2718 3.16325 13.1363 3.32889C13.0007 3.47947 12.7598 3.49453 12.5942 3.35901C12.0973 2.90726 11.5552 2.53081 10.998 2.21459C7.77556 4.03662 5.4566 8.19268 5.4566 12.1982C5.4566 16.2036 7.77556 20.3597 10.998 22.1817C13.8741 20.5554 16.0576 17.0469 16.4641 13.3727C16.4942 13.1619 16.6749 13.0113 16.8858 13.0414C17.0966 13.0715 17.2472 13.2522 17.217 13.463C16.7804 17.4535 14.3409 21.2632 11.1637 22.9497C11.1034 22.9798 11.0432 22.9949 10.983 22.9949H11.0131Z" fill="white"/>
<path d="M11.0131 22.9949C10.8022 22.9949 10.6366 22.8292 10.6366 22.6184V1.7779C10.6366 1.56708 10.8022 1.40144 11.0131 1.40144C11.2239 1.40144 11.3895 1.56708 11.3895 1.7779V22.6184C11.3895 22.8292 11.2239 22.9949 11.0131 22.9949Z" fill="white"/>
<path d="M21.4032 12.5746H18.7379C18.5271 12.5746 18.3615 12.409 18.3615 12.1982C18.3615 11.9873 18.5271 11.8217 18.7379 11.8217H21.4032C21.614 11.8217 21.7797 11.9873 21.7797 12.1982C21.7797 12.409 21.614 12.5746 21.4032 12.5746Z" fill="white"/>
<path d="M15.9521 12.5746H0.592763C0.381949 12.5746 0.216309 12.409 0.216309 12.1982C0.216309 11.9873 0.381949 11.8217 0.592763 11.8217H15.9521C16.1629 11.8217 16.3286 11.9873 16.3286 12.1982C16.3286 12.409 16.1629 12.5746 15.9521 12.5746Z" fill="white"/>
<path d="M17.3525 12.4843C17.2621 12.4843 17.1718 12.4541 17.0965 12.3789C16.9459 12.2433 13.5729 9.02088 13.5729 5.12081C13.5729 3.13313 14.5667 0.994873 17.3525 0.994873C20.1382 0.994873 21.1321 3.11808 21.1321 5.12081C21.1321 9.02088 17.7591 12.2433 17.6085 12.3789C17.5332 12.4541 17.4428 12.4843 17.3525 12.4843ZM17.3525 1.74778C14.6269 1.74778 14.3258 4.09686 14.3258 5.10576C14.3258 8.07222 16.5695 10.7225 17.3525 11.5507C18.1355 10.7225 20.3792 8.07222 20.3792 5.10576C20.3792 4.09686 20.078 1.74778 17.3525 1.74778Z" fill="white"/>
<path d="M17.3525 7.45483C16.0424 7.45483 14.9733 6.3857 14.9733 5.07563C14.9733 3.76557 16.0424 2.69644 17.3525 2.69644C18.6625 2.69644 19.7317 3.76557 19.7317 5.07563C19.7317 6.3857 18.6625 7.45483 17.3525 7.45483ZM17.3525 3.44935C16.464 3.44935 15.7262 4.17214 15.7262 5.07563C15.7262 5.97913 16.449 6.70192 17.3525 6.70192C18.2559 6.70192 18.9787 5.97913 18.9787 5.07563C18.9787 4.17214 18.2559 3.44935 17.3525 3.44935Z" fill="white"/>
</svg>
