<svg width="23" height="23" viewBox="0 0 23 23" fill="none" xmlns="http://www.w3.org/2000/svg">
<path d="M11.0394 22.9292C10.632 22.9292 10.2246 22.9029 9.8172 22.8635L9.58065 22.8372L8.98925 20.1299C8.27957 19.9196 7.59618 19.6305 6.96535 19.2494L4.42891 20.7476L4.25806 20.6161C3.83752 20.2876 3.43011 19.9196 3.06213 19.5385L2.90442 19.3676L4.28435 16.7261C3.8638 16.1084 3.5221 15.4381 3.25926 14.7284L0.236559 14.229L0.170848 13.9268C0.170848 13.9268 0.144564 13.8085 0.131422 13.7428C0.0657109 13.3485 0.0131422 12.928 0 12.4943V12.2577L2.78614 11.1012C2.85185 10.3127 3.0227 9.53729 3.29869 8.80132L1.36679 6.54087L1.48507 6.34374C1.73477 5.91005 2.02389 5.47635 2.33931 5.08209L2.48387 4.8981L5.23059 5.76548C5.82198 5.16094 6.49223 4.6484 7.2282 4.24099L7.20191 1.52056L7.42533 1.44171C7.92473 1.27086 8.45042 1.12629 8.9761 1.0343L9.19952 0.994873L10.5926 3.20276C11.4731 3.11076 12.3536 3.16333 13.2079 3.34732L14.7455 1.48113L14.9689 1.55999C15.5078 1.77026 16.0335 2.01996 16.5329 2.29595L16.73 2.40109L16.4146 4.74039C17.1374 5.25294 17.7814 5.85748 18.3202 6.56716L20.5149 6.15975L20.6332 6.35688C20.9355 6.88257 21.1983 7.44768 21.4217 8.02594L21.5006 8.23621L19.8578 9.73442C19.9104 9.95784 19.963 10.1813 20.0024 10.4047C20.1075 11.0224 20.147 11.6532 20.1075 12.284L22.0263 13.3748L21.9869 13.5982C21.8949 14.229 21.7372 14.8336 21.54 15.425L21.4743 15.6353L19.1876 15.7272C18.8196 16.4501 18.3728 17.1203 17.8208 17.7117L18.6619 19.9459L18.5042 20.0905C18.0442 20.511 17.5579 20.8921 17.0454 21.2207L16.8483 21.3521L14.8638 19.8276C14.233 20.1036 13.5627 20.3007 12.8925 20.4059C12.8268 20.4059 12.7479 20.4321 12.6822 20.4453L11.7885 22.9686H11.5651C11.3943 22.9817 11.2234 22.9949 11.0526 22.9949L11.0394 22.9292ZM10.1195 22.2326C10.5137 22.2721 10.908 22.2852 11.3023 22.2721L12.1828 19.7882L12.3799 19.7619C12.5114 19.7488 12.6296 19.7225 12.7611 19.7093C13.4444 19.591 14.1147 19.3808 14.7587 19.0916L14.9427 19.0128L16.8614 20.4979C17.2162 20.2613 17.5579 19.9985 17.8734 19.7093L17.0454 17.5146L17.19 17.37C17.7945 16.7392 18.2939 16.0164 18.6619 15.2278L18.7407 15.0439L20.9618 14.9519C21.0932 14.5313 21.1983 14.0976 21.2772 13.6639L19.3847 12.5994V12.3891C19.4504 11.7452 19.411 11.1012 19.3059 10.4572C19.2664 10.1944 19.2007 9.91841 19.135 9.65557L19.0824 9.45843L20.6858 7.98651C20.5281 7.59225 20.3441 7.19798 20.147 6.83L18.0179 7.22426L17.8996 7.05342C17.3477 6.29117 16.6511 5.63406 15.8626 5.10837L15.6918 4.99009L15.994 2.69021C15.6523 2.50622 15.2975 2.33537 14.9295 2.19081L13.4313 4.00443L13.2342 3.95186C12.3142 3.74159 11.3811 3.68902 10.4349 3.8073L10.2246 3.83358L8.84468 1.65198C8.50299 1.73083 8.16129 1.80969 7.83274 1.92797L7.85902 4.56954L7.68817 4.66154C6.8865 5.08209 6.16368 5.63406 5.546 6.30431L5.40143 6.46202L2.69415 5.60778C2.49701 5.87062 2.31302 6.13346 2.14217 6.40945L4.03465 8.61733L3.95579 8.80132C3.64038 9.58986 3.45639 10.431 3.40382 11.2983V11.5086L0.643967 12.6388C0.670251 12.9543 0.709677 13.2697 0.762246 13.5719V13.5982L3.73238 14.0976L3.79809 14.2816C4.04779 15.057 4.42891 15.793 4.90203 16.4501L5.02031 16.6209L3.66667 19.1968C3.91637 19.4465 4.17921 19.683 4.4552 19.9065L6.95221 18.4345L7.12306 18.5397C7.80645 18.9734 8.54241 19.2888 9.33094 19.4991L9.52808 19.5516L10.1063 22.1801L10.1195 22.2326Z" fill="white"/>
<path d="M11.3812 17.0941C10.2904 17.0941 9.22592 16.7524 8.30597 16.1084C7.14946 15.2805 6.37407 14.0582 6.13751 12.6652C5.90095 11.2589 6.2295 9.85274 7.04432 8.69623C7.87227 7.53971 9.0945 6.76433 10.4876 6.52777C11.8938 6.29121 13.3 6.61976 14.4565 7.43458C15.613 8.26253 16.3884 9.48476 16.625 10.8778C16.8615 12.2709 16.533 13.6903 15.7182 14.8468C14.8902 16.0033 13.668 16.7787 12.2749 17.0152C11.9726 17.0678 11.6704 17.0941 11.3812 17.0941ZM11.3944 7.11916C11.1315 7.11916 10.8687 7.14545 10.6058 7.18488C8.06941 7.61857 6.36093 10.0236 6.78147 12.56C6.99175 13.7822 7.662 14.8599 8.67395 15.5827C9.6859 16.3055 10.9213 16.5815 12.1566 16.3844C14.6931 15.9507 16.4015 13.5457 15.981 11.0092C15.7707 9.78703 15.1005 8.70937 14.0885 7.98655C13.2869 7.42143 12.3538 7.11916 11.3944 7.11916Z" fill="white"/>
</svg>
