<svg width="23" height="22" viewBox="0 0 23 22" fill="none" xmlns="http://www.w3.org/2000/svg">
<path d="M11.0914 11.816C9.57957 11.816 8.44568 9.60035 8.44568 8.1667C8.44568 6.73305 9.6317 5.52097 11.0914 5.52097C12.5511 5.52097 13.7371 6.70698 13.7371 8.1667C13.7371 9.62642 12.6033 11.816 11.0914 11.816ZM11.0914 6.17262C9.99663 6.17262 9.09734 7.07191 9.09734 8.1667C9.09734 9.26149 10.0357 11.1643 11.0914 11.1643C12.1471 11.1643 13.0855 9.30059 13.0855 8.1667C13.0855 7.03281 12.1862 6.17262 11.0914 6.17262Z" fill="white"/>
<path d="M15.8745 15.8172H6.16482C5.98235 15.8172 5.83899 15.6738 5.83899 15.4913V13.3409C5.83899 13.1975 5.94326 13.0672 6.07359 13.0281L9.87927 11.9854V11.1513C9.87927 10.9688 10.0226 10.8255 10.2051 10.8255C10.3876 10.8255 10.5309 10.9688 10.5309 11.1513V12.2331C10.5309 12.3764 10.4397 12.5067 10.2963 12.5458L6.49065 13.5885V15.1655H15.5487V13.5755L11.8864 12.5067C11.743 12.4676 11.6518 12.3373 11.6518 12.194V11.1774C11.6518 10.9949 11.7821 10.8515 11.9646 10.8515C12.147 10.8515 12.2904 10.9949 12.2904 11.1774V11.9594L15.9527 13.0281C16.0961 13.0672 16.1873 13.1975 16.1873 13.3409V15.5044C16.1873 15.6868 16.044 15.8302 15.8615 15.8302L15.8745 15.8172Z" fill="white"/>
<path d="M19.7454 9.52215C19.589 9.52215 19.4587 9.41788 19.4326 9.26148C18.7419 5.91196 16.1352 3.29229 12.7857 2.5885C12.6163 2.5494 12.499 2.37997 12.5381 2.1975C12.5772 2.02807 12.7466 1.91077 12.9291 1.94987C16.5393 2.70579 19.3414 5.52096 20.0843 9.13115C20.1234 9.31362 20.0061 9.48305 19.8366 9.50911C19.8106 9.50911 19.7975 9.50911 19.7715 9.50911L19.7454 9.52215Z" fill="white"/>
<path d="M2.28099 9.56125C2.28099 9.56125 2.24189 9.56125 2.21583 9.56125C2.0464 9.52215 1.9291 9.35272 1.95516 9.18329C2.69806 5.4949 5.55232 2.65367 9.25374 1.93684C9.43621 1.89774 9.60564 2.01504 9.6317 2.1975C9.6708 2.37997 9.55351 2.5494 9.37104 2.57547C5.93028 3.24016 3.27152 5.88589 2.58076 9.31362C2.55469 9.47002 2.41133 9.57428 2.26796 9.57428L2.28099 9.56125Z" fill="white"/>
<path d="M9.33193 20.079C9.33193 20.079 9.29283 20.079 9.26676 20.079C5.56534 19.3752 2.69804 16.521 1.95515 12.8326C1.91605 12.6501 2.03335 12.4807 2.21582 12.4546C2.38525 12.4155 2.56771 12.5328 2.59378 12.7153C3.2715 16.0909 5.99544 18.8018 9.38406 19.4534C9.56653 19.4925 9.67079 19.662 9.64473 19.8314C9.61866 19.9878 9.47529 20.0921 9.33193 20.0921V20.079Z" fill="white"/>
<path d="M12.8378 20.0399C12.6814 20.0399 12.5511 19.9357 12.525 19.7793C12.4859 19.6098 12.6032 19.4274 12.7726 19.3883C16.1482 18.6845 18.7549 16.0518 19.4326 12.6762C19.4717 12.4937 19.6411 12.3895 19.8105 12.4155C19.98 12.4546 20.0973 12.6241 20.0712 12.7935C19.3414 16.4297 16.5392 19.2579 12.903 20.0139C12.8769 20.0139 12.8639 20.0139 12.8378 20.0139V20.0399Z" fill="white"/>
<path d="M19.9278 13.0932C18.7809 13.0932 17.8425 12.1549 17.8425 11.0079C17.8425 9.86101 18.7809 8.92262 19.9278 8.92262C21.0748 8.92262 22.0131 9.86101 22.0131 11.0079C22.0131 12.1549 21.0748 13.0932 19.9278 13.0932ZM19.9278 9.56125C19.1328 9.56125 18.4812 10.2129 18.4812 11.0079C18.4812 11.803 19.1328 12.4546 19.9278 12.4546C20.7229 12.4546 21.3745 11.803 21.3745 11.0079C21.3745 10.2129 20.7229 9.56125 19.9278 9.56125Z" fill="white"/>
<path d="M2.09849 13.0932C0.951572 13.0932 0.0131836 12.1549 0.0131836 11.0079C0.0131836 9.86101 0.951572 8.92262 2.09849 8.92262C3.24541 8.92262 4.1838 9.86101 4.1838 11.0079C4.1838 12.1549 3.24541 13.0932 2.09849 13.0932ZM2.09849 9.56125C1.30347 9.56125 0.651809 10.2129 0.651809 11.0079C0.651809 11.803 1.30347 12.4546 2.09849 12.4546C2.89352 12.4546 3.54517 11.803 3.54517 11.0079C3.54517 10.2129 2.89352 9.56125 2.09849 9.56125Z" fill="white"/>
<path d="M11.0914 4.17855C9.94449 4.17855 9.0061 3.24016 9.0061 2.09324C9.0061 0.946323 9.94449 0.00793457 11.0914 0.00793457C12.2383 0.00793457 13.1767 0.946323 13.1767 2.09324C13.1767 3.24016 12.2383 4.17855 11.0914 4.17855ZM11.0914 0.64656C10.2964 0.64656 9.64473 1.29822 9.64473 2.09324C9.64473 2.88827 10.2964 3.53993 11.0914 3.53993C11.8864 3.53993 12.5381 2.88827 12.5381 2.09324C12.5381 1.29822 11.8864 0.64656 11.0914 0.64656Z" fill="white"/>
<path d="M11.0914 21.9949C9.94449 21.9949 9.0061 21.0565 9.0061 19.9096C9.0061 18.7627 9.94449 17.8243 11.0914 17.8243C12.2383 17.8243 13.1767 18.7627 13.1767 19.9096C13.1767 21.0565 12.2383 21.9949 11.0914 21.9949ZM11.0914 18.4629C10.2964 18.4629 9.64473 19.1146 9.64473 19.9096C9.64473 20.7046 10.2964 21.3563 11.0914 21.3563C11.8864 21.3563 12.5381 20.7046 12.5381 19.9096C12.5381 19.1146 11.8864 18.4629 11.0914 18.4629Z" fill="white"/>
</svg>
