<svg width="17" height="23" viewBox="0 0 17 23" fill="none" xmlns="http://www.w3.org/2000/svg">
<g clip-path="url(#clip0_109_16191)">
<path d="M11.9758 4.53225H4.09539C3.88604 4.53225 3.72156 4.37324 3.72156 4.17088C3.72156 1.87259 5.65053 0.00793457 8.0281 0.00793457C10.4057 0.00793457 12.3346 1.87259 12.3346 4.17088C12.3346 4.37324 12.1702 4.53225 11.9608 4.53225H11.9758ZM4.48417 3.80951H11.572C11.3776 2.07495 9.86735 0.716213 8.0281 0.716213C6.18885 0.716213 4.66361 2.07495 4.48417 3.80951Z" fill="white"/>
<path d="M14.2936 22.0079H1.74776C0.790754 22.0079 0.0131836 21.2563 0.0131836 20.3312V4.60451C0.0131836 3.67941 0.790754 2.92776 1.74776 2.92776H2.27113C2.48047 2.92776 2.64496 3.08677 2.64496 3.28913C2.64496 3.4915 2.48047 3.6505 2.27113 3.6505H1.74776C1.20945 3.6505 0.760847 4.08414 0.760847 4.60451V20.3312C0.760847 20.8516 1.20945 21.2852 1.74776 21.2852H14.2936C14.8319 21.2852 15.2805 20.8516 15.2805 20.3312V4.60451C15.2805 4.08414 14.8319 3.6505 14.2936 3.6505H13.6207C13.4113 3.6505 13.2468 3.4915 13.2468 3.28913C13.2468 3.08677 13.4113 2.92776 13.6207 2.92776H14.2936C15.2506 2.92776 16.0281 3.67941 16.0281 4.60451V20.3312C16.0281 21.2563 15.2506 22.0079 14.2936 22.0079Z" fill="white"/>
<path d="M6.51785 15.3877C6.42814 15.3877 6.32346 15.3588 6.2487 15.2865L4.06552 13.1761C3.91599 13.0316 3.91599 12.8003 4.06552 12.6702C4.21505 12.5401 4.4543 12.5257 4.58888 12.6702L6.5029 14.5204L11.5571 9.63475C11.7066 9.4902 11.9459 9.4902 12.0805 9.63475C12.2151 9.77929 12.23 10.0106 12.0805 10.1407L6.77206 15.2721C6.77206 15.2721 6.60757 15.3732 6.5029 15.3732L6.51785 15.3877Z" fill="white"/>
</g>
<defs>
<clipPath id="clip0_109_16191">
<rect width="16" height="22" fill="white" transform="translate(0.0131836 0.00793457)"/>
</clipPath>
</defs>
</svg>
