<svg width="22" height="18" viewBox="0 0 22 18" fill="none" xmlns="http://www.w3.org/2000/svg">
<path d="M17.9324 17.9957H13.0422C12.7994 17.9957 12.6087 17.8049 12.6087 17.5621V12.6373H9.43524V17.5621C9.43524 17.8049 9.24449 17.9957 9.00171 17.9957H4.11154C3.86876 17.9957 3.67801 17.8049 3.67801 17.5621V10.0882H1.14622C0.97281 10.0882 0.816741 9.9841 0.747377 9.81069C0.678013 9.63728 0.730036 9.46387 0.851423 9.34248L10.7185 0.117052C10.8919 -0.0390173 11.1347 -0.0390173 11.3081 0.117052L21.1751 9.34248C21.2965 9.46387 21.3485 9.65462 21.2792 9.81069C21.2098 9.9841 21.0537 10.0882 20.8803 10.0882H18.3485V17.5448C18.3485 17.7876 18.1578 17.9783 17.915 17.9783L17.9324 17.9957ZM13.4757 17.1286H17.4988V9.65462C17.4988 9.41185 17.6896 9.2211 17.9324 9.2211H19.8052L11.0133 1.01879L2.23871 9.2211H4.11154C4.35431 9.2211 4.54506 9.41185 4.54506 9.65462V17.1113H8.56819V12.1864C8.56819 11.9436 8.75894 11.7529 9.00171 11.7529H13.0422C13.285 11.7529 13.4757 11.9436 13.4757 12.1864V17.1113V17.1286Z" fill="white"/>
</svg>
